<svg width="2743" height="842" viewBox="0 0 2743 842" fill="none" xmlns="http://www.w3.org/2000/svg">
<path d="M0.55957 93.9402C256.948 93.5563 510.871 167.281 675.428 289.389C818.414 395.369 892.372 530.532 1015.02 645.727C1137.67 760.923 1344.75 862.295 1563.54 836.952C1713.31 819.673 1832.87 745.18 1903.13 660.703C1973.39 576.61 2004.21 481.766 2041.81 389.609C2079.4 297.453 2127.47 204.144 2225.47 131.187C2349.35 38.6463 2550.27 -11.2718 2742.56 2.9357" stroke="#D8D8D8" stroke-miterlimit="10"/>
<path d="M86.228 87.7965C326.592 87.7965 564.491 156.53 719.187 270.958C853.544 370.026 922.572 497.125 1037.21 605.025C1152.46 713.309 1346.6 808.153 1551.22 784.346C1691.74 768.219 1803.29 698.333 1869.85 619.232C1935.8 540.131 1964.77 451.431 1999.9 365.418C2035.03 279.021 2080.02 191.473 2171.85 123.123C2288.33 36.3425 2476.31 -10.5038 2656.89 2.93573" stroke="#D8D8D8" stroke-miterlimit="10"/>
<path d="M171.896 82.0367C396.236 82.0367 618.11 146.162 762.329 252.91C887.442 345.451 952.155 463.718 1059.39 564.706C1166.63 665.694 1347.83 754.011 1538.89 732.124C1670.17 716.765 1774.32 651.871 1835.96 578.146C1897.59 504.421 1924.09 421.864 1957.37 341.227C1990.65 260.59 2032.56 178.801 2117.61 115.059C2226.7 34.0385 2402.97 -9.73584 2570.61 2.55169" stroke="#D8D8D8" stroke-miterlimit="10"/>
<path d="M258.181 76.2769C466.496 76.2769 672.347 135.795 806.704 234.863C923.188 320.876 982.971 430.695 1082.2 524.388C1181.43 618.08 1350.3 700.253 1527.8 679.518C1649.83 665.31 1746.59 605.025 1803.91 536.291C1861.22 467.942 1885.88 391.145 1916.69 316.268C1947.51 241.391 1986.34 165.361 2065.84 106.228C2165.69 31.7345 2329.01 -8.96791 2484.94 2.55165" stroke="#D8D8D8" stroke-miterlimit="10"/>
<path d="M343.849 70.5171C536.14 70.5171 725.966 125.427 849.846 216.816C957.085 296.301 1012.55 397.673 1104.39 484.069C1196.22 570.466 1351.53 646.495 1515.47 627.296C1627.64 614.241 1717.01 558.563 1770.01 495.205C1823.01 431.847 1845.82 361.194 1874.17 292.077C1902.52 222.959 1938.26 153.074 2011.61 98.1641C2104.67 29.4307 2255.05 -8.19987 2399.27 2.55172" stroke="#D8D8D8" stroke-miterlimit="10"/>
</svg>
