<?xml version="1.0" encoding="utf-8"?>
<!-- Generator: Adobe Illustrator 26.0.1, SVG Export Plug-In . SVG Version: 6.00 Build 0)  -->
<svg version="1.1" id="Layer_1" xmlns="http://www.w3.org/2000/svg" xmlns:xlink="http://www.w3.org/1999/xlink" x="0px" y="0px"
	 viewBox="0 0 5669.29 5669.29" style="enable-background:new 0 0 5669.29 5669.29;" xml:space="preserve">
<style type="text/css">
	.st0{fill:url(#SVGID_1_);}
	.st1{fill:url(#SVGID_00000149364827698617605260000006025846077008302266_);}
	.st2{fill:url(#SVGID_00000018211050187376139610000006582606314446185118_);}
</style>
<linearGradient id="SVGID_1_" gradientUnits="userSpaceOnUse" x1="1857.4019" y1="5338.5513" x2="1857.4019" y2="555.937">
	<stop  offset="0" style="stop-color:#634978"/>
	<stop  offset="1" style="stop-color:#C82F72"/>
</linearGradient>
<polygon class="st0" points="2766.12,555.94 2766.12,1954.17 2155.2,1954.17 2155.2,1192.43 1564.72,1192.43 1564.72,2790.04 
	2144.97,3551.78 2144.97,3268.04 2766.12,3268.04 2766.12,5338.55 948.68,2999.65 948.68,555.94 "/>
<linearGradient id="SVGID_00000160169479874893543950000007666772463588018824_" gradientUnits="userSpaceOnUse" x1="3932.3816" y1="5338.5513" x2="3932.3816" y2="576.3865">
	<stop  offset="0" style="stop-color:#634978"/>
	<stop  offset="1" style="stop-color:#C82F72"/>
</linearGradient>
<polygon style="fill:url(#SVGID_00000160169479874893543950000007666772463588018824_);" points="3026.85,5338.55 3639.06,4558.92 
	3639.06,2620.69 4232.73,2620.69 4232.73,3788.23 4837.91,3003.64 4837.91,576.39 4228.26,576.39 4228.26,2007.85 3635.23,2007.85 
	3635.23,576.39 3026.85,576.39 "/>
<g>
	
		<linearGradient id="SVGID_00000128447783491337230090000000118618391797499309_" gradientUnits="userSpaceOnUse" x1="1915.1605" y1="2548.2319" x2="2954.8079" y2="2548.2319">
		<stop  offset="0" style="stop-color:#634978"/>
		<stop  offset="1" style="stop-color:#C82F72"/>
	</linearGradient>
	<path style="fill:url(#SVGID_00000128447783491337230090000000118618391797499309_);" d="M2897.05,2823.56h-183.18l-41.26,206.5
		h-217.83l41.26-206.5h-237.63l-42.91,206.5h-217.83l41.26-206.5h-123.77v-176.21h160.07l42.91-203.74h-145.22V2267.4h181.53
		l41.26-200.99h217.83l-41.26,200.99h239.28l41.26-200.99h217.83l-41.26,200.99h125.42v176.21h-161.72l-42.91,203.74h146.87V2823.56
		z M2288.11,2652.86h249.19l42.91-214.76h-249.18L2288.11,2652.86z"/>
</g>
</svg>
