<svg width="89" height="125" viewBox="0 0 89 125" fill="none" xmlns="http://www.w3.org/2000/svg">
<path d="M43.996 124.353L8.01762 114.365L0 24.4382H88.0999L80.0737 114.351L43.996 124.353Z" fill="#264DE4"/>
<path d="M73.2024 108.626L80.0612 31.7913H44.0498V116.708L73.2024 108.626Z" fill="#2965F1"/>
<path d="M18.3804 65.1438L19.3689 76.1729H44.0501V65.1438H18.3804Z" fill="#EBEBEB"/>
<path d="M16.394 42.8206L17.3966 53.8499H44.05V42.8206H44.0119H16.394Z" fill="#EBEBEB"/>
<path d="M44.0497 93.7878L44.0014 93.8006L31.7181 90.4839L30.9329 81.6876H24.9642H19.8613L21.4065 99.005L43.999 105.277L44.0497 105.263V93.7878Z" fill="#EBEBEB"/>
<path d="M20.7339 0H34.0921V5.58618H26.3201V11.1724H34.0921V16.7585H20.7339V0Z" fill="white"/>
<path d="M36.7637 0H50.1219V4.85755H42.3498V5.82905H50.1219V17.0014H36.7637V11.901H44.5357V10.9295H36.7637V0Z" fill="white"/>
<path d="M52.7935 0H66.1517V4.85755H58.3796V5.82905H66.1517V17.0014H52.7935V11.901H60.5655V10.9295H52.7935V0Z" fill="white"/>
<path d="M69.6489 65.1439L71.64 42.8206H44.0117V53.8499H59.5529L58.5494 65.1439H44.0117V76.173H57.5929L56.3127 90.477L44.0117 93.7971V105.272L66.6221 99.0051L66.788 97.1418L69.3798 68.1055L69.6489 65.1439Z" fill="white"/>
</svg>
