<svg width="88" height="124" viewBox="0 0 88 124" fill="none" xmlns="http://www.w3.org/2000/svg">
<path d="M87.8496 24.3689L79.8463 114.026L43.871 124L7.99485 114.041L0 24.3689H87.8496Z" fill="#E44D26"/>
<path d="M43.9248 116.377L72.9946 108.317L79.8339 31.7009H43.9248V116.377Z" fill="#F16529"/>
<path d="M28.3669 53.6968H43.9251V42.6989H43.887H16.3477L16.6109 45.6494L19.314 75.9565H43.9251V64.9588H29.372L28.3669 53.6968Z" fill="#EBEBEB"/>
<path d="M30.8453 81.4556H24.8935H19.8052L21.346 98.7238L43.8743 104.978L43.9249 104.964V93.5213L43.8767 93.5342L31.6283 90.2269L30.8453 81.4556Z" fill="#EBEBEB"/>
<path d="M8.17383 0H13.7628V5.52187H18.8754V0H24.4646V16.7216H18.8756V11.1222H13.763V16.7216H8.17407V0H8.17383Z" fill="white"/>
<path d="M31.8138 5.54513H26.8936V0H42.3257V5.54513H37.4033V16.7216H31.8141V5.54513H31.8138Z" fill="white"/>
<path d="M44.7749 0H50.6027L54.1875 5.87547L57.7687 0H63.5987V16.7216H58.0327V8.43345L54.1875 14.3789H54.0914L50.2435 8.43345V16.7216H44.7749V0Z" fill="white"/>
<path d="M66.3804 0H71.971V11.1944H79.8307V16.7216H66.3804V0Z" fill="white"/>
<path d="M43.8867 75.9565H57.4294L56.1528 90.2199L43.8867 93.5306V104.972L66.4329 98.7238L66.5983 96.8657L69.1827 67.912L69.4511 64.9587H66.4874H43.8867V75.9565Z" fill="white"/>
<path d="M43.8867 53.6699V53.6968H70.4164H70.4518L70.6724 51.2248L71.1735 45.6494L71.4365 42.6989H43.8867V49.5295V53.6699Z" fill="white"/>
</svg>
