<?xml version="1.0" encoding="utf-8"?>
<!-- Generator: Adobe Illustrator 24.2.3, SVG Export Plug-In . SVG Version: 6.00 Build 0)  -->
<svg version="1.1" id="Layer_1" xmlns="http://www.w3.org/2000/svg" xmlns:xlink="http://www.w3.org/1999/xlink" x="0px" y="0px"
	 viewBox="0 0 556.1 595.3" style="enable-background:new 0 0 556.1 595.3;" xml:space="preserve">
<style type="text/css">
	.st0{clip-path:url(#SVGID_2_);fill:#634978;}
	.st1{clip-path:url(#SVGID_2_);fill:#644978;}
	.st2{clip-path:url(#SVGID_2_);fill:#654878;}
	.st3{clip-path:url(#SVGID_2_);fill:#664878;}
	.st4{clip-path:url(#SVGID_2_);fill:#674878;}
	.st5{clip-path:url(#SVGID_2_);fill:#684878;}
	.st6{clip-path:url(#SVGID_2_);fill:#694778;}
	.st7{clip-path:url(#SVGID_2_);fill:#6A4778;}
	.st8{clip-path:url(#SVGID_2_);fill:#6B4778;}
	.st9{clip-path:url(#SVGID_2_);fill:#6C4777;}
	.st10{clip-path:url(#SVGID_2_);fill:#6D4677;}
	.st11{clip-path:url(#SVGID_2_);fill:#6E4677;}
	.st12{clip-path:url(#SVGID_2_);fill:#6F4677;}
	.st13{clip-path:url(#SVGID_2_);fill:#704677;}
	.st14{clip-path:url(#SVGID_2_);fill:#714577;}
	.st15{clip-path:url(#SVGID_2_);fill:#724577;}
	.st16{clip-path:url(#SVGID_2_);fill:#734577;}
	.st17{clip-path:url(#SVGID_2_);fill:#744577;}
	.st18{clip-path:url(#SVGID_2_);fill:#754477;}
	.st19{clip-path:url(#SVGID_2_);fill:#764477;}
	.st20{clip-path:url(#SVGID_2_);fill:#774477;}
	.st21{clip-path:url(#SVGID_2_);fill:#784477;}
	.st22{clip-path:url(#SVGID_2_);fill:#794377;}
	.st23{clip-path:url(#SVGID_2_);fill:#7A4377;}
	.st24{clip-path:url(#SVGID_2_);fill:#7B4377;}
	.st25{clip-path:url(#SVGID_2_);fill:#7C4377;}
	.st26{clip-path:url(#SVGID_2_);fill:#7D4276;}
	.st27{clip-path:url(#SVGID_2_);fill:#7E4276;}
	.st28{clip-path:url(#SVGID_2_);fill:#7F4276;}
	.st29{clip-path:url(#SVGID_2_);fill:#804176;}
	.st30{clip-path:url(#SVGID_2_);fill:#814176;}
	.st31{clip-path:url(#SVGID_2_);fill:#824176;}
	.st32{clip-path:url(#SVGID_2_);fill:#834176;}
	.st33{clip-path:url(#SVGID_2_);fill:#844076;}
	.st34{clip-path:url(#SVGID_2_);fill:#854076;}
	.st35{clip-path:url(#SVGID_2_);fill:#864076;}
	.st36{clip-path:url(#SVGID_2_);fill:#874076;}
	.st37{clip-path:url(#SVGID_2_);fill:#883F76;}
	.st38{clip-path:url(#SVGID_2_);fill:#893F76;}
	.st39{clip-path:url(#SVGID_2_);fill:#8A3F76;}
	.st40{clip-path:url(#SVGID_2_);fill:#8B3F76;}
	.st41{clip-path:url(#SVGID_2_);fill:#8C3E76;}
	.st42{clip-path:url(#SVGID_2_);fill:#8D3E75;}
	.st43{clip-path:url(#SVGID_2_);fill:#8E3E75;}
	.st44{clip-path:url(#SVGID_2_);fill:#8F3E75;}
	.st45{clip-path:url(#SVGID_2_);fill:#903D75;}
	.st46{clip-path:url(#SVGID_2_);fill:#913D75;}
	.st47{clip-path:url(#SVGID_2_);fill:#923D75;}
	.st48{clip-path:url(#SVGID_2_);fill:#933D75;}
	.st49{clip-path:url(#SVGID_2_);fill:#943C75;}
	.st50{clip-path:url(#SVGID_2_);fill:#963C75;}
	.st51{clip-path:url(#SVGID_2_);fill:#973C75;}
	.st52{clip-path:url(#SVGID_2_);fill:#983B75;}
	.st53{clip-path:url(#SVGID_2_);fill:#993B75;}
	.st54{clip-path:url(#SVGID_2_);fill:#9A3B75;}
	.st55{clip-path:url(#SVGID_2_);fill:#9B3B75;}
	.st56{clip-path:url(#SVGID_2_);fill:#9C3A75;}
	.st57{clip-path:url(#SVGID_2_);fill:#9D3A75;}
	.st58{clip-path:url(#SVGID_2_);fill:#9E3A75;}
	.st59{clip-path:url(#SVGID_2_);fill:#9F3A74;}
	.st60{clip-path:url(#SVGID_2_);fill:#A03974;}
	.st61{clip-path:url(#SVGID_2_);fill:#A13974;}
	.st62{clip-path:url(#SVGID_2_);fill:#A23974;}
	.st63{clip-path:url(#SVGID_2_);fill:#A33974;}
	.st64{clip-path:url(#SVGID_2_);fill:#A43874;}
	.st65{clip-path:url(#SVGID_2_);fill:#A53874;}
	.st66{clip-path:url(#SVGID_2_);fill:#A63874;}
	.st67{clip-path:url(#SVGID_2_);fill:#A73874;}
	.st68{clip-path:url(#SVGID_2_);fill:#A83774;}
	.st69{clip-path:url(#SVGID_2_);fill:#A93774;}
	.st70{clip-path:url(#SVGID_2_);fill:#AA3774;}
	.st71{clip-path:url(#SVGID_2_);fill:#AB3774;}
	.st72{clip-path:url(#SVGID_2_);fill:#AC3674;}
	.st73{clip-path:url(#SVGID_2_);fill:#AD3674;}
	.st74{clip-path:url(#SVGID_2_);fill:#AE3674;}
	.st75{clip-path:url(#SVGID_2_);fill:#AF3674;}
	.st76{clip-path:url(#SVGID_2_);fill:#B03573;}
	.st77{clip-path:url(#SVGID_2_);fill:#B13573;}
	.st78{clip-path:url(#SVGID_2_);fill:#B23573;}
	.st79{clip-path:url(#SVGID_2_);fill:#B33473;}
	.st80{clip-path:url(#SVGID_2_);fill:#B43473;}
	.st81{clip-path:url(#SVGID_2_);fill:#B53473;}
	.st82{clip-path:url(#SVGID_2_);fill:#B63473;}
	.st83{clip-path:url(#SVGID_2_);fill:#B73373;}
	.st84{clip-path:url(#SVGID_2_);fill:#B83373;}
	.st85{clip-path:url(#SVGID_2_);fill:#B93373;}
	.st86{clip-path:url(#SVGID_2_);fill:#BA3373;}
	.st87{clip-path:url(#SVGID_2_);fill:#BB3273;}
	.st88{clip-path:url(#SVGID_2_);fill:#BC3273;}
	.st89{clip-path:url(#SVGID_2_);fill:#BD3273;}
	.st90{clip-path:url(#SVGID_2_);fill:#BE3273;}
	.st91{clip-path:url(#SVGID_2_);fill:#BF3173;}
	.st92{clip-path:url(#SVGID_2_);fill:#C03172;}
	.st93{clip-path:url(#SVGID_2_);fill:#C13172;}
	.st94{clip-path:url(#SVGID_2_);fill:#C23172;}
	.st95{clip-path:url(#SVGID_2_);fill:#C33072;}
	.st96{clip-path:url(#SVGID_2_);fill:#C43072;}
	.st97{clip-path:url(#SVGID_2_);fill:#C53072;}
	.st98{clip-path:url(#SVGID_2_);fill:#C63072;}
	.st99{clip-path:url(#SVGID_2_);fill:#C72F72;}
	.st100{clip-path:url(#SVGID_2_);fill:#C82F72;}
	.st101{clip-path:url(#SVGID_4_);fill:#634978;}
	.st102{clip-path:url(#SVGID_4_);fill:#644978;}
	.st103{clip-path:url(#SVGID_4_);fill:#654878;}
	.st104{clip-path:url(#SVGID_4_);fill:#664878;}
	.st105{clip-path:url(#SVGID_4_);fill:#674878;}
	.st106{clip-path:url(#SVGID_4_);fill:#684878;}
	.st107{clip-path:url(#SVGID_4_);fill:#694778;}
	.st108{clip-path:url(#SVGID_4_);fill:#6A4778;}
	.st109{clip-path:url(#SVGID_4_);fill:#6B4778;}
	.st110{clip-path:url(#SVGID_4_);fill:#6C4777;}
	.st111{clip-path:url(#SVGID_4_);fill:#6D4677;}
	.st112{clip-path:url(#SVGID_4_);fill:#6E4677;}
	.st113{clip-path:url(#SVGID_4_);fill:#6F4677;}
	.st114{clip-path:url(#SVGID_4_);fill:#704677;}
	.st115{clip-path:url(#SVGID_4_);fill:#714577;}
	.st116{clip-path:url(#SVGID_4_);fill:#724577;}
	.st117{clip-path:url(#SVGID_4_);fill:#734577;}
	.st118{clip-path:url(#SVGID_4_);fill:#744577;}
	.st119{clip-path:url(#SVGID_4_);fill:#754477;}
	.st120{clip-path:url(#SVGID_4_);fill:#764477;}
	.st121{clip-path:url(#SVGID_4_);fill:#774477;}
	.st122{clip-path:url(#SVGID_4_);fill:#784477;}
	.st123{clip-path:url(#SVGID_4_);fill:#794377;}
	.st124{clip-path:url(#SVGID_4_);fill:#7A4377;}
	.st125{clip-path:url(#SVGID_4_);fill:#7B4377;}
	.st126{clip-path:url(#SVGID_4_);fill:#7C4377;}
	.st127{clip-path:url(#SVGID_4_);fill:#7D4276;}
	.st128{clip-path:url(#SVGID_4_);fill:#7E4276;}
	.st129{clip-path:url(#SVGID_4_);fill:#7F4276;}
	.st130{clip-path:url(#SVGID_4_);fill:#804176;}
	.st131{clip-path:url(#SVGID_4_);fill:#814176;}
	.st132{clip-path:url(#SVGID_4_);fill:#824176;}
	.st133{clip-path:url(#SVGID_4_);fill:#834176;}
	.st134{clip-path:url(#SVGID_4_);fill:#844076;}
	.st135{clip-path:url(#SVGID_4_);fill:#854076;}
	.st136{clip-path:url(#SVGID_4_);fill:#864076;}
	.st137{clip-path:url(#SVGID_4_);fill:#874076;}
	.st138{clip-path:url(#SVGID_4_);fill:#883F76;}
	.st139{clip-path:url(#SVGID_4_);fill:#893F76;}
	.st140{clip-path:url(#SVGID_4_);fill:#8A3F76;}
	.st141{clip-path:url(#SVGID_4_);fill:#8B3F76;}
	.st142{clip-path:url(#SVGID_4_);fill:#8C3E76;}
	.st143{clip-path:url(#SVGID_4_);fill:#8D3E75;}
	.st144{clip-path:url(#SVGID_4_);fill:#8E3E75;}
	.st145{clip-path:url(#SVGID_4_);fill:#8F3E75;}
	.st146{clip-path:url(#SVGID_4_);fill:#903D75;}
	.st147{clip-path:url(#SVGID_4_);fill:#913D75;}
	.st148{clip-path:url(#SVGID_4_);fill:#923D75;}
	.st149{clip-path:url(#SVGID_4_);fill:#933D75;}
	.st150{clip-path:url(#SVGID_4_);fill:#943C75;}
	.st151{clip-path:url(#SVGID_4_);fill:#963C75;}
	.st152{clip-path:url(#SVGID_4_);fill:#973C75;}
	.st153{clip-path:url(#SVGID_4_);fill:#983B75;}
	.st154{clip-path:url(#SVGID_4_);fill:#993B75;}
	.st155{clip-path:url(#SVGID_4_);fill:#9A3B75;}
	.st156{clip-path:url(#SVGID_4_);fill:#9B3B75;}
	.st157{clip-path:url(#SVGID_4_);fill:#9C3A75;}
	.st158{clip-path:url(#SVGID_4_);fill:#9D3A75;}
	.st159{clip-path:url(#SVGID_4_);fill:#9E3A75;}
	.st160{clip-path:url(#SVGID_4_);fill:#9F3A74;}
	.st161{clip-path:url(#SVGID_4_);fill:#A03974;}
	.st162{clip-path:url(#SVGID_4_);fill:#A13974;}
	.st163{clip-path:url(#SVGID_4_);fill:#A23974;}
	.st164{clip-path:url(#SVGID_4_);fill:#A33974;}
	.st165{clip-path:url(#SVGID_4_);fill:#A43874;}
	.st166{clip-path:url(#SVGID_4_);fill:#A53874;}
	.st167{clip-path:url(#SVGID_4_);fill:#A63874;}
	.st168{clip-path:url(#SVGID_4_);fill:#A73874;}
	.st169{clip-path:url(#SVGID_4_);fill:#A83774;}
	.st170{clip-path:url(#SVGID_4_);fill:#A93774;}
	.st171{clip-path:url(#SVGID_4_);fill:#AA3774;}
	.st172{clip-path:url(#SVGID_4_);fill:#AB3774;}
	.st173{clip-path:url(#SVGID_4_);fill:#AC3674;}
	.st174{clip-path:url(#SVGID_4_);fill:#AD3674;}
	.st175{clip-path:url(#SVGID_4_);fill:#AE3674;}
	.st176{clip-path:url(#SVGID_4_);fill:#AF3674;}
	.st177{clip-path:url(#SVGID_4_);fill:#B03573;}
	.st178{clip-path:url(#SVGID_4_);fill:#B13573;}
	.st179{clip-path:url(#SVGID_4_);fill:#B23573;}
	.st180{clip-path:url(#SVGID_4_);fill:#B33473;}
	.st181{clip-path:url(#SVGID_4_);fill:#B43473;}
	.st182{clip-path:url(#SVGID_4_);fill:#B53473;}
	.st183{clip-path:url(#SVGID_4_);fill:#B63473;}
	.st184{clip-path:url(#SVGID_4_);fill:#B73373;}
	.st185{clip-path:url(#SVGID_4_);fill:#B83373;}
	.st186{clip-path:url(#SVGID_4_);fill:#B93373;}
	.st187{clip-path:url(#SVGID_4_);fill:#BA3373;}
	.st188{clip-path:url(#SVGID_4_);fill:#BB3273;}
	.st189{clip-path:url(#SVGID_4_);fill:#BC3273;}
	.st190{clip-path:url(#SVGID_4_);fill:#BD3273;}
	.st191{clip-path:url(#SVGID_4_);fill:#BE3273;}
	.st192{clip-path:url(#SVGID_4_);fill:#BF3173;}
	.st193{clip-path:url(#SVGID_4_);fill:#C03172;}
	.st194{clip-path:url(#SVGID_4_);fill:#C13172;}
	.st195{clip-path:url(#SVGID_4_);fill:#C23172;}
	.st196{clip-path:url(#SVGID_4_);fill:#C33072;}
	.st197{clip-path:url(#SVGID_4_);fill:#C43072;}
	.st198{clip-path:url(#SVGID_4_);fill:#C53072;}
	.st199{clip-path:url(#SVGID_4_);fill:#C63072;}
	.st200{clip-path:url(#SVGID_4_);fill:#C72F72;}
	.st201{clip-path:url(#SVGID_4_);fill:#C82F72;}
	.st202{clip-path:url(#SVGID_6_);fill:#874076;}
	.st203{clip-path:url(#SVGID_6_);fill:#883F76;}
	.st204{clip-path:url(#SVGID_6_);fill:#893F76;}
	.st205{clip-path:url(#SVGID_6_);fill:#8A3F76;}
	.st206{clip-path:url(#SVGID_6_);fill:#8B3F76;}
	.st207{clip-path:url(#SVGID_6_);fill:#8C3E76;}
	.st208{clip-path:url(#SVGID_6_);fill:#8D3E75;}
	.st209{clip-path:url(#SVGID_6_);fill:#8E3E75;}
	.st210{clip-path:url(#SVGID_6_);fill:#8F3E75;}
	.st211{clip-path:url(#SVGID_6_);fill:#903D75;}
	.st212{clip-path:url(#SVGID_6_);fill:#913D75;}
	.st213{clip-path:url(#SVGID_6_);fill:#923D75;}
	.st214{clip-path:url(#SVGID_6_);fill:#933D75;}
	.st215{clip-path:url(#SVGID_6_);fill:#943C75;}
	.st216{clip-path:url(#SVGID_6_);fill:#963C75;}
	.st217{clip-path:url(#SVGID_6_);fill:#973C75;}
	.st218{clip-path:url(#SVGID_6_);fill:#983B75;}
	.st219{clip-path:url(#SVGID_6_);fill:#993B75;}
	.st220{clip-path:url(#SVGID_6_);fill:#9A3B75;}
	.st221{clip-path:url(#SVGID_6_);fill:#9B3B75;}
	.st222{clip-path:url(#SVGID_6_);fill:#9C3A75;}
	.st223{clip-path:url(#SVGID_6_);fill:#9D3A75;}
	.st224{clip-path:url(#SVGID_6_);fill:#9E3A75;}
	.st225{clip-path:url(#SVGID_6_);fill:#9F3A74;}
	.st226{clip-path:url(#SVGID_6_);fill:#A03974;}
	.st227{clip-path:url(#SVGID_6_);fill:#A13974;}
	.st228{clip-path:url(#SVGID_6_);fill:#A23974;}
	.st229{clip-path:url(#SVGID_6_);fill:#A33974;}
	.st230{clip-path:url(#SVGID_6_);fill:#A43874;}
	.st231{clip-path:url(#SVGID_6_);fill:#634978;}
	.st232{clip-path:url(#SVGID_6_);fill:#644978;}
	.st233{clip-path:url(#SVGID_6_);fill:#654878;}
	.st234{clip-path:url(#SVGID_6_);fill:#664878;}
	.st235{clip-path:url(#SVGID_6_);fill:#674878;}
	.st236{clip-path:url(#SVGID_6_);fill:#684878;}
	.st237{clip-path:url(#SVGID_6_);fill:#694778;}
	.st238{clip-path:url(#SVGID_6_);fill:#6A4778;}
	.st239{clip-path:url(#SVGID_6_);fill:#6B4778;}
	.st240{clip-path:url(#SVGID_6_);fill:#6C4777;}
	.st241{clip-path:url(#SVGID_6_);fill:#6D4677;}
	.st242{clip-path:url(#SVGID_6_);fill:#6E4677;}
	.st243{clip-path:url(#SVGID_6_);fill:#6F4677;}
	.st244{clip-path:url(#SVGID_6_);fill:#704677;}
	.st245{clip-path:url(#SVGID_6_);fill:#714577;}
	.st246{clip-path:url(#SVGID_6_);fill:#724577;}
	.st247{clip-path:url(#SVGID_6_);fill:#734577;}
	.st248{clip-path:url(#SVGID_6_);fill:#744577;}
	.st249{clip-path:url(#SVGID_6_);fill:#754477;}
	.st250{clip-path:url(#SVGID_6_);fill:#764477;}
	.st251{clip-path:url(#SVGID_6_);fill:#774477;}
	.st252{clip-path:url(#SVGID_6_);fill:#784477;}
	.st253{clip-path:url(#SVGID_6_);fill:#794377;}
	.st254{clip-path:url(#SVGID_6_);fill:#7A4377;}
	.st255{clip-path:url(#SVGID_6_);fill:#7B4377;}
	.st256{clip-path:url(#SVGID_6_);fill:#7C4377;}
	.st257{clip-path:url(#SVGID_6_);fill:#7D4276;}
	.st258{clip-path:url(#SVGID_6_);fill:#7E4276;}
	.st259{clip-path:url(#SVGID_6_);fill:#7F4276;}
	.st260{clip-path:url(#SVGID_6_);fill:#804176;}
	.st261{clip-path:url(#SVGID_6_);fill:#814176;}
	.st262{clip-path:url(#SVGID_6_);fill:#824176;}
	.st263{clip-path:url(#SVGID_6_);fill:#834176;}
	.st264{clip-path:url(#SVGID_6_);fill:#844076;}
	.st265{clip-path:url(#SVGID_6_);fill:#854076;}
	.st266{clip-path:url(#SVGID_6_);fill:#864076;}
	.st267{clip-path:url(#SVGID_6_);fill:#A53874;}
	.st268{clip-path:url(#SVGID_6_);fill:#A63874;}
	.st269{clip-path:url(#SVGID_6_);fill:#A73874;}
	.st270{clip-path:url(#SVGID_6_);fill:#A83774;}
	.st271{clip-path:url(#SVGID_6_);fill:#A93774;}
	.st272{clip-path:url(#SVGID_6_);fill:#AA3774;}
	.st273{clip-path:url(#SVGID_6_);fill:#AB3774;}
	.st274{clip-path:url(#SVGID_6_);fill:#AC3674;}
	.st275{clip-path:url(#SVGID_6_);fill:#AD3674;}
	.st276{clip-path:url(#SVGID_6_);fill:#AE3674;}
	.st277{clip-path:url(#SVGID_6_);fill:#AF3674;}
	.st278{clip-path:url(#SVGID_6_);fill:#B03573;}
	.st279{clip-path:url(#SVGID_6_);fill:#B13573;}
	.st280{clip-path:url(#SVGID_6_);fill:#B23573;}
	.st281{clip-path:url(#SVGID_6_);fill:#B33473;}
	.st282{clip-path:url(#SVGID_6_);fill:#B43473;}
	.st283{clip-path:url(#SVGID_6_);fill:#B53473;}
	.st284{clip-path:url(#SVGID_6_);fill:#B63473;}
	.st285{clip-path:url(#SVGID_6_);fill:#B73373;}
	.st286{clip-path:url(#SVGID_6_);fill:#B83373;}
	.st287{clip-path:url(#SVGID_6_);fill:#B93373;}
	.st288{clip-path:url(#SVGID_6_);fill:#BA3373;}
	.st289{clip-path:url(#SVGID_6_);fill:#BB3273;}
	.st290{clip-path:url(#SVGID_6_);fill:#BC3273;}
	.st291{clip-path:url(#SVGID_6_);fill:#BD3273;}
	.st292{clip-path:url(#SVGID_6_);fill:#BE3273;}
	.st293{clip-path:url(#SVGID_6_);fill:#BF3173;}
	.st294{clip-path:url(#SVGID_6_);fill:#C03172;}
	.st295{clip-path:url(#SVGID_6_);fill:#C13172;}
	.st296{clip-path:url(#SVGID_6_);fill:#C23172;}
	.st297{clip-path:url(#SVGID_6_);fill:#C33072;}
	.st298{clip-path:url(#SVGID_6_);fill:#C43072;}
	.st299{clip-path:url(#SVGID_6_);fill:#C53072;}
	.st300{clip-path:url(#SVGID_6_);fill:#C63072;}
	.st301{clip-path:url(#SVGID_6_);fill:#C72F72;}
	.st302{clip-path:url(#SVGID_6_);fill:#C82F72;}
</style>
<g>
	<g>
		<g>
			<defs>
				<polygon id="SVGID_1_" points="262.5,0.5 262.5,174.4 186.6,174.4 186.6,79.6 113.1,79.6 113.1,278.3 185.3,373.1 185.3,337.8 
					262.5,337.8 262.5,595.3 36.5,304.4 36.5,0.5 				"/>
			</defs>
			<clipPath id="SVGID_2_">
				<use xlink:href="#SVGID_1_"  style="overflow:visible;"/>
			</clipPath>
			<path class="st0" d="M36.5,595.3h226H36.5z"/>
			<rect x="36.5" y="589.4" class="st0" width="226" height="5.9"/>
			<rect x="36.5" y="583.5" class="st1" width="226" height="5.9"/>
			<rect x="36.5" y="577.6" class="st2" width="226" height="5.9"/>
			<rect x="36.5" y="571.7" class="st3" width="226" height="5.9"/>
			<rect x="36.5" y="565.8" class="st4" width="226" height="5.9"/>
			<rect x="36.5" y="559.9" class="st5" width="226" height="5.9"/>
			<rect x="36.5" y="554.1" class="st6" width="226" height="5.9"/>
			<rect x="36.5" y="548.2" class="st7" width="226" height="5.9"/>
			<rect x="36.5" y="542.3" class="st8" width="226" height="5.9"/>
			<rect x="36.5" y="536.4" class="st9" width="226" height="5.9"/>
			<rect x="36.5" y="530.5" class="st10" width="226" height="5.9"/>
			<rect x="36.5" y="524.6" class="st11" width="226" height="5.9"/>
			<rect x="36.5" y="518.7" class="st12" width="226" height="5.9"/>
			<rect x="36.5" y="512.8" class="st13" width="226" height="5.9"/>
			<rect x="36.5" y="506.9" class="st14" width="226" height="5.9"/>
			<rect x="36.5" y="501" class="st15" width="226" height="5.9"/>
			<rect x="36.5" y="495.2" class="st16" width="226" height="5.9"/>
			<rect x="36.5" y="489.3" class="st17" width="226" height="5.9"/>
			<rect x="36.5" y="483.4" class="st18" width="226" height="5.9"/>
			<rect x="36.5" y="477.5" class="st19" width="226" height="5.9"/>
			<rect x="36.5" y="471.6" class="st20" width="226" height="5.9"/>
			<rect x="36.5" y="465.7" class="st21" width="226" height="5.9"/>
			<rect x="36.5" y="459.8" class="st22" width="226" height="5.9"/>
			<rect x="36.5" y="453.9" class="st23" width="226" height="5.9"/>
			<rect x="36.5" y="448" class="st24" width="226" height="5.9"/>
			<rect x="36.5" y="442.2" class="st25" width="226" height="5.9"/>
			<rect x="36.5" y="436.3" class="st26" width="226" height="5.9"/>
			<rect x="36.5" y="430.4" class="st27" width="226" height="5.9"/>
			<rect x="36.5" y="424.5" class="st28" width="226" height="5.9"/>
			<rect x="36.5" y="418.6" class="st29" width="226" height="5.9"/>
			<rect x="36.5" y="412.7" class="st30" width="226" height="5.9"/>
			<rect x="36.5" y="406.8" class="st31" width="226" height="5.9"/>
			<rect x="36.5" y="400.9" class="st32" width="226" height="5.9"/>
			<rect x="36.5" y="395" class="st33" width="226" height="5.9"/>
			<rect x="36.5" y="389.2" class="st34" width="226" height="5.9"/>
			<rect x="36.5" y="383.3" class="st35" width="226" height="5.9"/>
			<rect x="36.5" y="377.4" class="st36" width="226" height="5.9"/>
			<rect x="36.5" y="371.5" class="st37" width="226" height="5.9"/>
			<rect x="36.5" y="365.6" class="st38" width="226" height="5.9"/>
			<rect x="36.5" y="359.7" class="st39" width="226" height="5.9"/>
			<rect x="36.5" y="353.8" class="st40" width="226" height="5.9"/>
			<rect x="36.5" y="347.9" class="st41" width="226" height="5.9"/>
			<rect x="36.5" y="342" class="st42" width="226" height="5.9"/>
			<rect x="36.5" y="336.2" class="st43" width="226" height="5.9"/>
			<rect x="36.5" y="330.3" class="st44" width="226" height="5.9"/>
			<rect x="36.5" y="324.4" class="st45" width="226" height="5.9"/>
			<rect x="36.5" y="318.5" class="st46" width="226" height="5.9"/>
			<rect x="36.5" y="312.6" class="st47" width="226" height="5.9"/>
			<rect x="36.5" y="306.7" class="st48" width="226" height="5.9"/>
			<rect x="36.5" y="300.8" class="st49" width="226" height="5.9"/>
			<rect x="36.5" y="294.9" class="st50" width="226" height="5.9"/>
			<rect x="36.5" y="289" class="st51" width="226" height="5.9"/>
			<rect x="36.5" y="283.2" class="st52" width="226" height="5.9"/>
			<rect x="36.5" y="277.3" class="st53" width="226" height="5.9"/>
			<rect x="36.5" y="271.4" class="st54" width="226" height="5.9"/>
			<rect x="36.5" y="265.5" class="st55" width="226" height="5.9"/>
			<rect x="36.5" y="259.6" class="st56" width="226" height="5.9"/>
			<rect x="36.5" y="253.7" class="st57" width="226" height="5.9"/>
			<rect x="36.5" y="247.8" class="st58" width="226" height="5.9"/>
			<rect x="36.5" y="241.9" class="st59" width="226" height="5.9"/>
			<rect x="36.5" y="236" class="st60" width="226" height="5.9"/>
			<rect x="36.5" y="230.1" class="st61" width="226" height="5.9"/>
			<rect x="36.5" y="224.3" class="st62" width="226" height="5.9"/>
			<rect x="36.5" y="218.4" class="st63" width="226" height="5.9"/>
			<rect x="36.5" y="212.5" class="st64" width="226" height="5.9"/>
			<rect x="36.5" y="206.6" class="st65" width="226" height="5.9"/>
			<rect x="36.5" y="200.7" class="st66" width="226" height="5.9"/>
			<rect x="36.5" y="194.8" class="st67" width="226" height="5.9"/>
			<rect x="36.5" y="188.9" class="st68" width="226" height="5.9"/>
			<rect x="36.5" y="183" class="st69" width="226" height="5.9"/>
			<rect x="36.5" y="177.1" class="st70" width="226" height="5.9"/>
			<rect x="36.5" y="171.3" class="st71" width="226" height="5.9"/>
			<rect x="36.5" y="165.4" class="st72" width="226" height="5.9"/>
			<rect x="36.5" y="159.5" class="st73" width="226" height="5.9"/>
			<rect x="36.5" y="153.6" class="st74" width="226" height="5.9"/>
			<rect x="36.5" y="147.7" class="st75" width="226" height="5.9"/>
			<rect x="36.5" y="141.8" class="st76" width="226" height="5.9"/>
			<rect x="36.5" y="135.9" class="st77" width="226" height="5.9"/>
			<rect x="36.5" y="130" class="st78" width="226" height="5.9"/>
			<rect x="36.5" y="124.1" class="st79" width="226" height="5.9"/>
			<rect x="36.5" y="118.3" class="st80" width="226" height="5.9"/>
			<rect x="36.5" y="112.4" class="st81" width="226" height="5.9"/>
			<rect x="36.5" y="106.5" class="st82" width="226" height="5.9"/>
			<rect x="36.5" y="100.6" class="st83" width="226" height="5.9"/>
			<rect x="36.5" y="94.7" class="st84" width="226" height="5.9"/>
			<rect x="36.5" y="88.8" class="st85" width="226" height="5.9"/>
			<rect x="36.5" y="82.9" class="st86" width="226" height="5.9"/>
			<rect x="36.5" y="77" class="st87" width="226" height="5.9"/>
			<rect x="36.5" y="71.1" class="st88" width="226" height="5.9"/>
			<rect x="36.5" y="65.3" class="st89" width="226" height="5.9"/>
			<rect x="36.5" y="59.4" class="st90" width="226" height="5.9"/>
			<rect x="36.5" y="53.5" class="st91" width="226" height="5.9"/>
			<rect x="36.5" y="47.6" class="st92" width="226" height="5.9"/>
			<rect x="36.5" y="41.7" class="st93" width="226" height="5.9"/>
			<rect x="36.5" y="35.8" class="st94" width="226" height="5.9"/>
			<rect x="36.5" y="29.9" class="st95" width="226" height="5.9"/>
			<rect x="36.5" y="24" class="st96" width="226" height="5.9"/>
			<rect x="36.5" y="18.1" class="st97" width="226" height="5.9"/>
			<rect x="36.5" y="12.3" class="st98" width="226" height="5.9"/>
			<rect x="36.5" y="6.4" class="st99" width="226" height="5.9"/>
			<rect x="36.5" y="0.5" class="st100" width="226" height="5.9"/>
			<path class="st100" d="M262.5,0.5h-226H262.5z"/>
		</g>
	</g>
	<g>
		<g>
			<defs>
				<polygon id="SVGID_3_" points="295,595.3 371.1,498.3 371.1,257.3 444.9,257.3 444.9,402.5 520.2,304.9 520.2,3 444.4,3 
					444.4,181 370.6,181 370.6,3 295,3 				"/>
			</defs>
			<clipPath id="SVGID_4_">
				<use xlink:href="#SVGID_3_"  style="overflow:visible;"/>
			</clipPath>
			<rect x="295" y="589.4" class="st101" width="225.2" height="5.9"/>
			<rect x="295" y="583.5" class="st102" width="225.2" height="5.9"/>
			<rect x="295" y="577.7" class="st103" width="225.2" height="5.9"/>
			<rect x="295" y="571.8" class="st104" width="225.2" height="5.9"/>
			<rect x="295" y="566" class="st105" width="225.2" height="5.9"/>
			<rect x="295" y="560.1" class="st106" width="225.2" height="5.9"/>
			<rect x="295" y="554.2" class="st107" width="225.2" height="5.9"/>
			<rect x="295" y="548.4" class="st108" width="225.2" height="5.9"/>
			<rect x="295" y="542.5" class="st109" width="225.2" height="5.9"/>
			<rect x="295" y="536.6" class="st110" width="225.2" height="5.9"/>
			<rect x="295" y="530.8" class="st111" width="225.2" height="5.9"/>
			<rect x="295" y="524.9" class="st112" width="225.2" height="5.9"/>
			<rect x="295" y="519" class="st113" width="225.2" height="5.9"/>
			<rect x="295" y="513.2" class="st114" width="225.2" height="5.9"/>
			<rect x="295" y="507.3" class="st115" width="225.2" height="5.9"/>
			<rect x="295" y="501.5" class="st116" width="225.2" height="5.9"/>
			<rect x="295" y="495.6" class="st117" width="225.2" height="5.9"/>
			<rect x="295" y="489.7" class="st118" width="225.2" height="5.9"/>
			<rect x="295" y="483.9" class="st119" width="225.2" height="5.9"/>
			<rect x="295" y="478" class="st120" width="225.2" height="5.9"/>
			<rect x="295" y="472.1" class="st121" width="225.2" height="5.9"/>
			<rect x="295" y="466.3" class="st122" width="225.2" height="5.9"/>
			<rect x="295" y="460.4" class="st123" width="225.2" height="5.9"/>
			<rect x="295" y="454.5" class="st124" width="225.2" height="5.9"/>
			<rect x="295" y="448.7" class="st125" width="225.2" height="5.9"/>
			<rect x="295" y="442.8" class="st126" width="225.2" height="5.9"/>
			<rect x="295" y="436.9" class="st127" width="225.2" height="5.9"/>
			<rect x="295" y="431.1" class="st128" width="225.2" height="5.9"/>
			<rect x="295" y="425.2" class="st129" width="225.2" height="5.9"/>
			<rect x="295" y="419.4" class="st130" width="225.2" height="5.9"/>
			<rect x="295" y="413.5" class="st131" width="225.2" height="5.9"/>
			<rect x="295" y="407.6" class="st132" width="225.2" height="5.9"/>
			<rect x="295" y="401.8" class="st133" width="225.2" height="5.9"/>
			<rect x="295" y="395.9" class="st134" width="225.2" height="5.9"/>
			<rect x="295" y="390" class="st135" width="225.2" height="5.9"/>
			<rect x="295" y="384.2" class="st136" width="225.2" height="5.9"/>
			<rect x="295" y="378.3" class="st137" width="225.2" height="5.9"/>
			<rect x="295" y="372.4" class="st138" width="225.2" height="5.9"/>
			<rect x="295" y="366.6" class="st139" width="225.2" height="5.9"/>
			<rect x="295" y="360.7" class="st140" width="225.2" height="5.9"/>
			<rect x="295" y="354.9" class="st141" width="225.2" height="5.9"/>
			<rect x="295" y="349" class="st142" width="225.2" height="5.9"/>
			<rect x="295" y="343.1" class="st143" width="225.2" height="5.9"/>
			<rect x="295" y="337.3" class="st144" width="225.2" height="5.9"/>
			<rect x="295" y="331.4" class="st145" width="225.2" height="5.9"/>
			<rect x="295" y="325.5" class="st146" width="225.2" height="5.9"/>
			<rect x="295" y="319.7" class="st147" width="225.2" height="5.9"/>
			<rect x="295" y="313.8" class="st148" width="225.2" height="5.9"/>
			<rect x="295" y="307.9" class="st149" width="225.2" height="5.9"/>
			<rect x="295" y="302.1" class="st150" width="225.2" height="5.9"/>
			<rect x="295" y="296.2" class="st151" width="225.2" height="5.9"/>
			<rect x="295" y="290.3" class="st152" width="225.2" height="5.9"/>
			<rect x="295" y="284.5" class="st153" width="225.2" height="5.9"/>
			<rect x="295" y="278.6" class="st154" width="225.2" height="5.9"/>
			<rect x="295" y="272.8" class="st155" width="225.2" height="5.9"/>
			<rect x="295" y="266.9" class="st156" width="225.2" height="5.9"/>
			<rect x="295" y="261" class="st157" width="225.2" height="5.9"/>
			<rect x="295" y="255.2" class="st158" width="225.2" height="5.9"/>
			<rect x="295" y="249.3" class="st159" width="225.2" height="5.9"/>
			<rect x="295" y="243.4" class="st160" width="225.2" height="5.9"/>
			<rect x="295" y="237.6" class="st161" width="225.2" height="5.9"/>
			<rect x="295" y="231.7" class="st162" width="225.2" height="5.9"/>
			<rect x="295" y="225.8" class="st163" width="225.2" height="5.9"/>
			<rect x="295" y="220" class="st164" width="225.2" height="5.9"/>
			<rect x="295" y="214.1" class="st165" width="225.2" height="5.9"/>
			<rect x="295" y="208.3" class="st166" width="225.2" height="5.9"/>
			<rect x="295" y="202.4" class="st167" width="225.2" height="5.9"/>
			<rect x="295" y="196.5" class="st168" width="225.2" height="5.9"/>
			<rect x="295" y="190.7" class="st169" width="225.2" height="5.9"/>
			<rect x="295" y="184.8" class="st170" width="225.2" height="5.9"/>
			<rect x="295" y="178.9" class="st171" width="225.2" height="5.9"/>
			<rect x="295" y="173.1" class="st172" width="225.2" height="5.9"/>
			<rect x="295" y="167.2" class="st173" width="225.2" height="5.9"/>
			<rect x="295" y="161.3" class="st174" width="225.2" height="5.9"/>
			<rect x="295" y="155.5" class="st175" width="225.2" height="5.9"/>
			<rect x="295" y="149.6" class="st176" width="225.2" height="5.9"/>
			<rect x="295" y="143.8" class="st177" width="225.2" height="5.9"/>
			<rect x="295" y="137.9" class="st178" width="225.2" height="5.9"/>
			<rect x="295" y="132" class="st179" width="225.2" height="5.9"/>
			<rect x="295" y="126.2" class="st180" width="225.2" height="5.9"/>
			<rect x="295" y="120.3" class="st181" width="225.2" height="5.9"/>
			<rect x="295" y="114.4" class="st182" width="225.2" height="5.9"/>
			<rect x="295" y="108.6" class="st183" width="225.2" height="5.9"/>
			<rect x="295" y="102.7" class="st184" width="225.2" height="5.9"/>
			<rect x="295" y="96.8" class="st185" width="225.2" height="5.9"/>
			<rect x="295" y="91" class="st186" width="225.2" height="5.9"/>
			<rect x="295" y="85.1" class="st187" width="225.2" height="5.9"/>
			<rect x="295" y="79.2" class="st188" width="225.2" height="5.9"/>
			<rect x="295" y="73.4" class="st189" width="225.2" height="5.9"/>
			<rect x="295" y="67.5" class="st190" width="225.2" height="5.9"/>
			<rect x="295" y="61.7" class="st191" width="225.2" height="5.9"/>
			<rect x="295" y="55.8" class="st192" width="225.2" height="5.9"/>
			<rect x="295" y="49.9" class="st193" width="225.2" height="5.9"/>
			<rect x="295" y="44.1" class="st194" width="225.2" height="5.9"/>
			<rect x="295" y="38.2" class="st195" width="225.2" height="5.9"/>
			<rect x="295" y="32.3" class="st196" width="225.2" height="5.9"/>
			<rect x="295" y="26.5" class="st197" width="225.2" height="5.9"/>
			<rect x="295" y="20.6" class="st198" width="225.2" height="5.9"/>
			<rect x="295" y="14.7" class="st199" width="225.2" height="5.9"/>
			<rect x="295" y="8.9" class="st200" width="225.2" height="5.9"/>
			<rect x="295" y="3" class="st201" width="225.2" height="5.9"/>
			<path class="st201" d="M520.2,3H295H520.2z"/>
		</g>
	</g>
	<g>
		<g>
			<g>
				<defs>
					<path id="SVGID_5_" d="M278.8,282.5H256l-5.1,25.7h-27.1l5.1-25.7h-29.6l-5.3,25.7H167l5.1-25.7h-15.4v-21.9h19.9l5.3-25.3
						h-18.1v-21.9h22.6l5.1-25h27.1l-5.1,25h29.8l5.1-25h27.1l-5.1,25H286v21.9h-20.1l-5.3,25.3h18.3L278.8,282.5L278.8,282.5z
						 M203.1,261.3h31l5.3-26.7h-31L203.1,261.3z"/>
				</defs>
				<clipPath id="SVGID_6_">
					<use xlink:href="#SVGID_5_"  style="overflow:visible;"/>
				</clipPath>
				<rect x="203.1" y="234.6" class="st202" width="1" height="26.7"/>
				<rect x="204.1" y="234.6" class="st203" width="1.3" height="26.7"/>
				<rect x="205.4" y="234.6" class="st204" width="1.3" height="26.7"/>
				<rect x="206.6" y="234.6" class="st205" width="1.3" height="26.7"/>
				<rect x="207.9" y="234.6" class="st206" width="1.3" height="26.7"/>
				<rect x="209.2" y="234.6" class="st207" width="1.3" height="26.7"/>
				<rect x="210.5" y="234.6" class="st208" width="1.3" height="26.7"/>
				<rect x="211.8" y="234.6" class="st209" width="1.3" height="26.7"/>
				<rect x="213" y="234.6" class="st210" width="1.3" height="26.7"/>
				<rect x="214.3" y="234.6" class="st211" width="1.3" height="26.7"/>
				<rect x="215.6" y="234.6" class="st212" width="1.3" height="26.7"/>
				<rect x="216.9" y="234.6" class="st213" width="1.3" height="26.7"/>
				<rect x="218.2" y="234.6" class="st214" width="1.3" height="26.7"/>
				<rect x="219.4" y="234.6" class="st215" width="1.3" height="26.7"/>
				<rect x="220.7" y="234.6" class="st216" width="1.3" height="26.7"/>
				<rect x="222" y="234.6" class="st217" width="1.3" height="26.7"/>
				<rect x="223.3" y="234.6" class="st218" width="1.3" height="26.7"/>
				<rect x="224.6" y="234.6" class="st219" width="1.3" height="26.7"/>
				<rect x="225.8" y="234.6" class="st220" width="1.3" height="26.7"/>
				<rect x="227.1" y="234.6" class="st221" width="1.3" height="26.7"/>
				<rect x="228.4" y="234.6" class="st222" width="1.3" height="26.7"/>
				<rect x="229.7" y="234.6" class="st223" width="1.3" height="26.7"/>
				<rect x="231" y="234.6" class="st224" width="1.3" height="26.7"/>
				<rect x="232.2" y="234.6" class="st225" width="1.3" height="26.7"/>
				<rect x="233.5" y="234.6" class="st226" width="1.3" height="26.7"/>
				<rect x="234.8" y="234.6" class="st227" width="1.3" height="26.7"/>
				<rect x="236.1" y="234.6" class="st228" width="1.3" height="26.7"/>
				<rect x="237.4" y="234.6" class="st229" width="1.3" height="26.7"/>
				<rect x="238.6" y="234.6" class="st230" width="0.8" height="26.7"/>
				<path class="st231" d="M156.7,188.3v119.8V188.3z"/>
				<rect x="156.7" y="188.3" class="st231" width="1.3" height="119.8"/>
				<rect x="158" y="188.3" class="st232" width="1.3" height="119.8"/>
				<rect x="159.3" y="188.3" class="st233" width="1.3" height="119.8"/>
				<rect x="160.6" y="188.3" class="st234" width="1.3" height="119.8"/>
				<rect x="161.8" y="188.3" class="st235" width="1.3" height="119.8"/>
				<rect x="163.1" y="188.3" class="st236" width="1.3" height="119.8"/>
				<rect x="164.4" y="188.3" class="st237" width="1.3" height="119.8"/>
				<rect x="165.7" y="188.3" class="st238" width="1.3" height="119.8"/>
				<rect x="167" y="188.3" class="st239" width="1.3" height="119.8"/>
				<rect x="168.2" y="188.3" class="st240" width="1.3" height="119.8"/>
				<rect x="169.5" y="188.3" class="st241" width="1.3" height="119.8"/>
				<rect x="170.8" y="188.3" class="st242" width="1.3" height="119.8"/>
				<rect x="172.1" y="188.3" class="st243" width="1.3" height="119.8"/>
				<rect x="173.4" y="188.3" class="st244" width="1.3" height="119.8"/>
				<rect x="174.6" y="188.3" class="st245" width="1.3" height="119.8"/>
				<rect x="175.9" y="188.3" class="st246" width="1.3" height="119.8"/>
				<rect x="177.2" y="188.3" class="st247" width="1.3" height="119.8"/>
				<rect x="178.5" y="188.3" class="st248" width="1.3" height="119.8"/>
				<rect x="179.8" y="188.3" class="st249" width="1.3" height="119.8"/>
				<rect x="181" y="188.3" class="st250" width="1.3" height="119.8"/>
				<rect x="182.3" y="188.3" class="st251" width="1.3" height="119.8"/>
				<rect x="183.6" y="188.3" class="st252" width="1.3" height="119.8"/>
				<rect x="184.9" y="188.3" class="st253" width="1.3" height="119.8"/>
				<rect x="186.2" y="188.3" class="st254" width="1.3" height="119.8"/>
				<rect x="187.4" y="188.3" class="st255" width="1.3" height="119.8"/>
				<rect x="188.7" y="188.3" class="st256" width="1.3" height="119.8"/>
				<rect x="190" y="188.3" class="st257" width="1.3" height="119.8"/>
				<rect x="191.3" y="188.3" class="st258" width="1.3" height="119.8"/>
				<rect x="192.6" y="188.3" class="st259" width="1.3" height="119.8"/>
				<rect x="193.8" y="188.3" class="st260" width="1.3" height="119.8"/>
				<rect x="195.1" y="188.3" class="st261" width="1.3" height="119.8"/>
				<rect x="196.4" y="188.3" class="st262" width="1.3" height="119.8"/>
				<rect x="197.7" y="188.3" class="st263" width="1.3" height="119.8"/>
				<rect x="199" y="188.3" class="st264" width="1.3" height="119.8"/>
				<rect x="200.2" y="188.3" class="st265" width="1.3" height="119.8"/>
				<rect x="201.5" y="188.3" class="st266" width="1.3" height="119.8"/>
				<rect x="202.8" y="188.3" class="st202" width="1.3" height="119.8"/>
				<rect x="204.1" y="188.3" class="st203" width="1.3" height="119.8"/>
				<rect x="205.4" y="188.3" class="st204" width="1.3" height="119.8"/>
				<rect x="206.6" y="188.3" class="st205" width="1.3" height="119.8"/>
				<rect x="207.9" y="188.3" class="st206" width="1.3" height="119.8"/>
				<rect x="209.2" y="188.3" class="st207" width="1.3" height="119.8"/>
				<rect x="210.5" y="188.3" class="st208" width="1.3" height="119.8"/>
				<rect x="211.8" y="188.3" class="st209" width="1.3" height="119.8"/>
				<rect x="213" y="188.3" class="st210" width="1.3" height="119.8"/>
				<rect x="214.3" y="188.3" class="st211" width="1.3" height="119.8"/>
				<rect x="215.6" y="188.3" class="st212" width="1.3" height="119.8"/>
				<rect x="216.9" y="188.3" class="st213" width="1.3" height="119.8"/>
				<rect x="218.2" y="188.3" class="st214" width="1.3" height="119.8"/>
				<rect x="219.4" y="188.3" class="st215" width="1.3" height="119.8"/>
				<rect x="220.7" y="188.3" class="st216" width="1.3" height="119.8"/>
				<rect x="222" y="188.3" class="st217" width="1.3" height="119.8"/>
				<rect x="223.3" y="188.3" class="st218" width="1.3" height="119.8"/>
				<rect x="224.6" y="188.3" class="st219" width="1.3" height="119.8"/>
				<rect x="225.8" y="188.3" class="st220" width="1.3" height="119.8"/>
				<rect x="227.1" y="188.3" class="st221" width="1.3" height="119.8"/>
				<rect x="228.4" y="188.3" class="st222" width="1.3" height="119.8"/>
				<rect x="229.7" y="188.3" class="st223" width="1.3" height="119.8"/>
				<rect x="231" y="188.3" class="st224" width="1.3" height="119.8"/>
				<rect x="232.2" y="188.3" class="st225" width="1.3" height="119.8"/>
				<rect x="233.5" y="188.3" class="st226" width="1.3" height="119.8"/>
				<rect x="234.8" y="188.3" class="st227" width="1.3" height="119.8"/>
				<rect x="236.1" y="188.3" class="st228" width="1.3" height="119.8"/>
				<rect x="237.4" y="188.3" class="st229" width="1.3" height="119.8"/>
				<rect x="238.6" y="188.3" class="st230" width="1.3" height="119.8"/>
				<rect x="239.9" y="188.3" class="st267" width="1.3" height="119.8"/>
				<rect x="241.2" y="188.3" class="st268" width="1.3" height="119.8"/>
				<rect x="242.5" y="188.3" class="st269" width="1.3" height="119.8"/>
				<rect x="243.8" y="188.3" class="st270" width="1.3" height="119.8"/>
				<rect x="245" y="188.3" class="st271" width="1.3" height="119.8"/>
				<rect x="246.3" y="188.3" class="st272" width="1.3" height="119.8"/>
				<rect x="247.6" y="188.3" class="st273" width="1.3" height="119.8"/>
				<rect x="248.9" y="188.3" class="st274" width="1.3" height="119.8"/>
				<rect x="250.2" y="188.3" class="st275" width="1.3" height="119.8"/>
				<rect x="251.4" y="188.3" class="st276" width="1.3" height="119.8"/>
				<rect x="252.7" y="188.3" class="st277" width="1.3" height="119.8"/>
				<rect x="254" y="188.3" class="st278" width="1.3" height="119.8"/>
				<rect x="255.3" y="188.3" class="st279" width="1.3" height="119.8"/>
				<rect x="256.6" y="188.3" class="st280" width="1.3" height="119.8"/>
				<rect x="257.8" y="188.3" class="st281" width="1.3" height="119.8"/>
				<rect x="259.1" y="188.3" class="st282" width="1.3" height="119.8"/>
				<rect x="260.4" y="188.3" class="st283" width="1.3" height="119.8"/>
				<rect x="261.7" y="188.3" class="st284" width="1.3" height="119.8"/>
				<rect x="263" y="188.3" class="st285" width="1.3" height="119.8"/>
				<rect x="264.2" y="188.3" class="st286" width="1.3" height="119.8"/>
				<rect x="265.5" y="188.3" class="st287" width="1.3" height="119.8"/>
				<rect x="266.8" y="188.3" class="st288" width="1.3" height="119.8"/>
				<rect x="268.1" y="188.3" class="st289" width="1.3" height="119.8"/>
				<rect x="269.4" y="188.3" class="st290" width="1.3" height="119.8"/>
				<rect x="270.6" y="188.3" class="st291" width="1.3" height="119.8"/>
				<rect x="271.9" y="188.3" class="st292" width="1.3" height="119.8"/>
				<rect x="273.2" y="188.3" class="st293" width="1.3" height="119.8"/>
				<rect x="274.5" y="188.3" class="st294" width="1.3" height="119.8"/>
				<rect x="275.8" y="188.3" class="st295" width="1.3" height="119.8"/>
				<rect x="277.1" y="188.3" class="st296" width="1.3" height="119.8"/>
				<rect x="278.3" y="188.3" class="st297" width="1.3" height="119.8"/>
				<rect x="279.6" y="188.3" class="st298" width="1.3" height="119.8"/>
				<rect x="280.9" y="188.3" class="st299" width="1.3" height="119.8"/>
				<rect x="282.2" y="188.3" class="st300" width="1.3" height="119.8"/>
				<rect x="283.5" y="188.3" class="st301" width="1.3" height="119.8"/>
				<rect x="284.7" y="188.3" class="st302" width="1.3" height="119.8"/>
				<path class="st302" d="M286,308.2V188.3V308.2z"/>
			</g>
		</g>
	</g>
</g>
</svg>
