<svg width="59" height="59" viewBox="0 0 59 59" fill="none" xmlns="http://www.w3.org/2000/svg">
<path d="M6.32441 22.5073L0 28.8317L29.2003 58.032L35.5247 51.7075L6.32441 22.5073Z" fill="white"/>
<path d="M0.00532118 28.83L5.0957 33.9204L33.9258 5.09034L28.8354 -4.2998e-05L0.00532118 28.83Z" fill="white"/>
<path d="M51.9781 35.1785L58.0249 29.1317L35.3804 6.48723L29.3337 12.534L51.9781 35.1785Z" fill="white"/>
<path d="M44.4696 42.7646L50.4624 36.7719L39.0322 25.3416L33.0394 31.3344L44.4696 42.7646Z" fill="white"/>
<path d="M36.8764 50.3631L42.9463 44.2932L31.8554 33.2024L25.7855 39.2722L36.8764 50.3631Z" fill="white"/>
<path d="M16.4883 45.3146L10.7837 39.61L17.11 33.2836L28.9338 21.449L34.6493 27.1645L22.8147 38.9882L16.4883 45.3146Z" fill="white"/>
</svg>
