<svg width="113" height="82" viewBox="0 0 113 82" fill="none" xmlns="http://www.w3.org/2000/svg">
<path d="M8.704 27.52V21.952H3.2V19.648H8.704V14.08H11.136V19.648H16.64V21.952H11.136V27.52H8.704Z" fill="white"/>
<path d="M8.704 68.52V62.952H3.2V60.648H8.704V55.08H11.136V60.648H16.64V62.952H11.136V68.52H8.704Z" fill="white"/>
<path d="M39.704 27.52V21.952H34.2V19.648H39.704V14.08H42.136V19.648H47.64V21.952H42.136V27.52H39.704Z" fill="white"/>
<path d="M39.704 68.52V62.952H34.2V60.648H39.704V55.08H42.136V60.648H47.64V62.952H42.136V68.52H39.704Z" fill="white"/>
<path d="M70.704 27.52V21.952H65.2V19.648H70.704V14.08H73.136V19.648H78.64V21.952H73.136V27.52H70.704Z" fill="white"/>
<path d="M70.704 68.52V62.952H65.2V60.648H70.704V55.08H73.136V60.648H78.64V62.952H73.136V68.52H70.704Z" fill="white"/>
<path d="M101.704 27.52V21.952H96.2V19.648H101.704V14.08H104.136V19.648H109.64V21.952H104.136V27.52H101.704Z" fill="white"/>
<path d="M101.704 68.52V62.952H96.2V60.648H101.704V55.08H104.136V60.648H109.64V62.952H104.136V68.52H101.704Z" fill="white"/>
</svg>
